<svg width="19" height="19" viewBox="0 0 19 19" fill="none" xmlns="http://www.w3.org/2000/svg">
<path d="M15.5585 16.0583C17.5964 14.1563 18.5021 10.9863 17.9587 7.95215H9.85254V11.3033H14.4716C14.2905 12.3901 13.6565 13.2958 12.7508 13.8846L15.5585 16.0583Z" fill="#4285F4"/>
<path d="M2.15332 13.387C2.22753 13.533 2.30577 13.6769 2.38804 13.8186C2.47037 13.9603 2.55661 14.0996 2.64676 14.2364C2.73697 14.3731 2.83089 14.5073 2.92866 14.6388C3.02643 14.7703 3.12779 14.8989 3.23286 15.0247C3.33788 15.1504 3.44635 15.2731 3.55836 15.3928C3.6703 15.5124 3.78558 15.6288 3.90414 15.7419C4.0227 15.855 4.14434 15.9646 4.26907 16.0709C4.3938 16.1771 4.52143 16.2797 4.65201 16.3788C4.78254 16.4778 4.91577 16.573 5.05172 16.6645C5.18766 16.756 5.32606 16.8435 5.46698 16.9272C5.60784 17.0109 5.75096 17.0905 5.89635 17.1661C6.04175 17.2416 6.18915 17.313 6.33858 17.3803C6.488 17.4475 6.63919 17.5105 6.7922 17.5691C6.94516 17.6278 7.09968 17.6821 7.25572 17.7321C7.41176 17.782 7.56912 17.8276 7.72774 17.8686C7.88636 17.9097 8.04599 17.9462 8.20669 17.9783C8.36739 18.0103 8.52885 18.0377 8.69112 18.0607C8.85334 18.0835 9.01611 18.1019 9.1794 18.1155C9.34268 18.1292 9.50622 18.1383 9.67 18.1427C9.83379 18.1472 9.99758 18.147 10.1614 18.1422C10.3251 18.1375 10.4886 18.128 10.6519 18.114C10.8151 18.0999 10.9778 18.0813 11.1401 18.058C11.3023 18.0348 11.4637 18.0069 11.6243 17.9746C11.7849 17.9422 11.9445 17.9053 12.103 17.8639C12.2616 17.8225 12.4188 17.7767 12.5748 17.7264C12.7307 17.6761 12.8851 17.6215 13.038 17.5624C13.1908 17.5034 13.3419 17.4402 13.4911 17.3726C13.6404 17.305 13.7877 17.2334 13.9329 17.1574C14.0781 17.0816 14.2211 17.0017 14.3618 16.9177C14.5025 16.8337 14.6407 16.7458 14.7764 16.6541C14.9122 16.5623 15.0452 16.4668 15.1756 16.3675C15.3059 16.2682 15.4333 16.1653 15.5578 16.0588L12.7501 13.8851C10.35 15.4701 6.36491 14.8814 5.0063 11.168L2.15332 13.387Z" fill="#34A853"/>
<path d="M5.00691 11.1674C4.64463 10.0353 4.64463 8.99371 5.00691 7.86157L2.15393 5.64258C1.11237 7.72575 0.795383 10.6692 2.15393 13.3864L5.00691 11.1674Z" fill="#FBBC02"/>
<path d="M5.0063 7.86168C6.00263 4.73701 10.2594 2.9256 13.1124 5.5974L15.6031 3.152C12.0709 -0.24436 5.18747 -0.108543 2.15332 5.64269L5.0063 7.86168Z" fill="#EA4335"/>
<g style="mix-blend-mode:color">
<path d="M3.19998 0.895508H15.8C15.8442 0.895508 15.8883 0.896584 15.9325 0.898736C15.9766 0.900887 16.0207 0.904164 16.0646 0.908468C16.1087 0.91282 16.1525 0.918248 16.1962 0.924704C16.2399 0.931208 16.2834 0.938739 16.3268 0.947347C16.3701 0.956003 16.4132 0.965686 16.4561 0.976396C16.4989 0.987155 16.5415 0.998941 16.5838 1.01175C16.6261 1.02457 16.668 1.03841 16.7096 1.05332C16.7512 1.06819 16.7924 1.08408 16.8333 1.101C16.8741 1.11793 16.9145 1.13582 16.9544 1.1547C16.9944 1.17363 17.0338 1.19348 17.0728 1.21432C17.1117 1.23515 17.1502 1.25691 17.1881 1.2796C17.226 1.30234 17.2633 1.32597 17.3001 1.35052C17.3368 1.37507 17.3729 1.4005 17.4084 1.42681C17.4439 1.45317 17.4787 1.48031 17.5129 1.50838C17.547 1.5364 17.5805 1.56526 17.6132 1.59494C17.646 1.62458 17.678 1.65504 17.7092 1.68629C17.7405 1.71754 17.7709 1.74953 17.8006 1.78229C17.8303 1.81501 17.8591 1.84846 17.8871 1.88265C17.9152 1.91678 17.9423 1.9516 17.9687 1.98711C17.995 2.02261 18.0204 2.0587 18.045 2.09543C18.0695 2.13221 18.0932 2.16952 18.1159 2.20742C18.1386 2.24532 18.1604 2.28376 18.1812 2.32274C18.202 2.36167 18.2219 2.40113 18.2408 2.44109C18.2597 2.48104 18.2776 2.52144 18.2945 2.56222C18.3114 2.60306 18.3273 2.64429 18.3422 2.6859C18.3571 2.72747 18.3709 2.76943 18.3838 2.81173C18.3966 2.85399 18.4084 2.89658 18.4191 2.93942C18.4298 2.98231 18.4395 3.0254 18.4482 3.06873C18.4568 3.11206 18.4643 3.15558 18.4708 3.1993C18.4773 3.24302 18.4827 3.28684 18.487 3.33086C18.4913 3.37482 18.4946 3.41888 18.4968 3.463C18.4989 3.50716 18.5 3.55132 18.5 3.59548V16.1955C18.5 16.2396 18.4989 16.2838 18.4968 16.328C18.4946 16.3721 18.4913 16.4161 18.487 16.4601C18.4827 16.5041 18.4773 16.5479 18.4708 16.5917C18.4643 16.6354 18.4568 16.6789 18.4482 16.7222C18.4395 16.7656 18.4298 16.8087 18.4191 16.8515C18.4084 16.8944 18.3966 16.937 18.3838 16.9792C18.3709 17.0215 18.3571 17.0635 18.3422 17.1051C18.3273 17.1467 18.3114 17.1879 18.2945 17.2287C18.2776 17.2695 18.2597 17.3099 18.2408 17.3499C18.2219 17.3898 18.202 17.4293 18.1812 17.4683C18.1604 17.5072 18.1386 17.5456 18.1159 17.5835C18.0932 17.6214 18.0695 17.6588 18.045 17.6955C18.0204 17.7323 17.995 17.7684 17.9687 17.8039C17.9423 17.8394 17.9152 17.8742 17.8871 17.9083C17.8591 17.9425 17.8303 17.976 17.8006 18.0087C17.7709 18.0414 17.7405 18.0734 17.7092 18.1047C17.678 18.1359 17.646 18.1664 17.6132 18.196C17.5805 18.2257 17.547 18.2546 17.5129 18.2826C17.4787 18.3107 17.4439 18.3378 17.4084 18.3642C17.3729 18.3905 17.3368 18.4159 17.3001 18.4405C17.2633 18.465 17.226 18.4886 17.1881 18.5114C17.1502 18.5341 17.1117 18.5558 17.0728 18.5767C17.0338 18.5975 16.9944 18.6173 16.9544 18.6363C16.9145 18.6551 16.8741 18.673 16.8333 18.69C16.7924 18.7069 16.7512 18.7228 16.7096 18.7376C16.668 18.7526 16.6261 18.7664 16.5838 18.7792C16.5415 18.792 16.4989 18.8038 16.4561 18.8146C16.4132 18.8253 16.3701 18.835 16.3268 18.8436C16.2834 18.8522 16.2399 18.8598 16.1962 18.8663C16.1525 18.8727 16.1087 18.8781 16.0646 18.8825C16.0207 18.8868 15.9766 18.8901 15.9325 18.8922C15.8883 18.8944 15.8442 18.8955 15.8 18.8955H3.19998C3.15582 18.8955 3.11166 18.8944 3.0675 18.8922C3.02338 18.8901 2.97932 18.8868 2.93535 18.8825C2.89134 18.8781 2.84752 18.8727 2.8038 18.8663C2.76008 18.8598 2.71656 18.8522 2.67323 18.8436C2.6299 18.835 2.58681 18.8253 2.54392 18.8146C2.50108 18.8038 2.45849 18.792 2.41623 18.7792C2.37393 18.7664 2.33197 18.7526 2.2904 18.7376C2.24878 18.7228 2.20756 18.7069 2.16672 18.69C2.12593 18.673 2.08554 18.6551 2.04558 18.6363C2.00563 18.6173 1.96616 18.5975 1.92719 18.5767C1.88826 18.5558 1.84982 18.5341 1.81192 18.5114C1.77402 18.4886 1.7367 18.465 1.69993 18.4405C1.6632 18.4159 1.62711 18.3905 1.5916 18.3642C1.5561 18.3378 1.52128 18.3107 1.48709 18.2826C1.45296 18.2546 1.41951 18.2257 1.38679 18.196C1.35402 18.1664 1.32204 18.1359 1.29079 18.1047C1.25954 18.0734 1.22907 18.0414 1.19939 18.0087C1.16975 17.976 1.1409 17.9425 1.11287 17.9083C1.0848 17.8742 1.05766 17.8394 1.0313 17.8039C1.00499 17.7684 0.979559 17.7323 0.955009 17.6955C0.930459 17.6588 0.906838 17.6214 0.884097 17.5835C0.861406 17.5456 0.839643 17.5072 0.81881 17.4683C0.797976 17.4293 0.778121 17.3898 0.759195 17.3499C0.740318 17.3099 0.722418 17.2695 0.705497 17.2287C0.688576 17.1879 0.672682 17.1467 0.657815 17.1051C0.642899 17.0635 0.629059 17.0215 0.616246 16.9792C0.603433 16.937 0.591647 16.8944 0.580888 16.8515C0.570178 16.8087 0.560495 16.7656 0.551839 16.7222C0.543232 16.6789 0.5357 16.6354 0.529196 16.5917C0.522692 16.5479 0.517312 16.5041 0.51296 16.4601C0.508656 16.4161 0.50538 16.3721 0.503228 16.328C0.501076 16.2838 0.5 16.2396 0.5 16.1955V3.59548C0.5 3.55132 0.501076 3.50716 0.503228 3.463C0.50538 3.41888 0.508656 3.37482 0.51296 3.33086C0.517312 3.28684 0.522692 3.24302 0.529196 3.1993C0.5357 3.15558 0.543232 3.11206 0.551839 3.06873C0.560495 3.0254 0.570178 2.98231 0.580888 2.93942C0.591647 2.89658 0.603433 2.85399 0.616246 2.81173C0.629059 2.76943 0.642899 2.72747 0.657815 2.6859C0.672682 2.64429 0.688576 2.60306 0.705497 2.56222C0.722418 2.52144 0.740318 2.48104 0.759195 2.44109C0.778121 2.40113 0.797976 2.36167 0.81881 2.32274C0.839643 2.28376 0.861406 2.24532 0.884097 2.20742C0.906838 2.16952 0.930459 2.13221 0.955009 2.09543C0.979559 2.0587 1.00499 2.02261 1.0313 1.98711C1.05766 1.9516 1.0848 1.91678 1.11287 1.88265C1.1409 1.84846 1.16975 1.81501 1.19939 1.78229C1.22907 1.74953 1.25954 1.71754 1.29079 1.68629C1.32204 1.65504 1.35402 1.62458 1.38679 1.59494C1.41951 1.56526 1.45296 1.5364 1.48709 1.50838C1.52128 1.48031 1.5561 1.45317 1.5916 1.42681C1.62711 1.4005 1.6632 1.37507 1.69993 1.35052C1.7367 1.32597 1.77402 1.30234 1.81192 1.2796C1.84982 1.25691 1.88826 1.23515 1.92719 1.21432C1.96616 1.19348 2.00563 1.17363 2.04558 1.1547C2.08554 1.13582 2.12593 1.11793 2.16672 1.101C2.20756 1.08408 2.24878 1.06819 2.2904 1.05332C2.33197 1.03841 2.37393 1.02457 2.41623 1.01175C2.45849 0.998941 2.50108 0.987155 2.54392 0.976396C2.58681 0.965686 2.6299 0.956003 2.67323 0.947347C2.71656 0.938739 2.76008 0.931208 2.8038 0.924704C2.84752 0.918248 2.89134 0.91282 2.93535 0.908468C2.97932 0.904164 3.02338 0.900887 3.0675 0.898736C3.11166 0.896584 3.15582 0.895508 3.19998 0.895508Z" fill="#3F51B5"/>
</g>
</svg>
