<svg width="18" height="18" viewBox="0 0 18 18" fill="none" xmlns="http://www.w3.org/2000/svg">
<path d="M0 1.28941C0 0.57748 0.595518 0 1.33016 0H16.6698C17.4045 0 18 0.57748 18 1.28941V16.7106C18 17.4228 17.4045 18 16.6698 18H1.33016C0.595518 18 0 17.4228 0 16.7106V1.28941Z" fill="#006699"/>
<path fill-rule="evenodd" clip-rule="evenodd" d="M5.68259 15.0677V6.93973H2.98099V15.0677H5.68259ZM4.33178 5.82999C5.27388 5.82999 5.86026 5.20585 5.86026 4.42586C5.8427 3.62831 5.27388 3.02148 4.34965 3.02148C3.42552 3.02148 2.82129 3.62831 2.82129 4.42586C2.82129 5.20585 3.40754 5.82999 4.31417 5.82999H4.33178Z" fill="white"/>
<path fill-rule="evenodd" clip-rule="evenodd" d="M7.17747 15.0677H9.87904V10.5287C9.87904 10.2858 9.8966 10.0431 9.96794 9.86946C10.1632 9.3841 10.6078 8.88142 11.3541 8.88142C12.3317 8.88142 12.7227 9.62678 12.7227 10.7194V15.0677H15.4241V10.4073C15.4241 7.9107 14.0913 6.74901 12.3138 6.74901C10.8564 6.74901 10.2166 7.56363 9.86108 8.11851H9.87912V6.93973H7.17754C7.213 7.70241 7.17747 15.0677 7.17747 15.0677Z" fill="white"/>
<g style="mix-blend-mode:color">
<path d="M0 1.28941C0 0.57748 0.595518 0 1.33016 0H16.6698C17.4045 0 18 0.57748 18 1.28941V16.7106C18 17.4228 17.4045 18 16.6698 18H1.33016C0.595518 18 0 17.4228 0 16.7106V1.28941Z" fill="#3F51B5"/>
</g>
</svg>
