<svg width="149" height="24" viewBox="0 0 149 24" fill="none" xmlns="http://www.w3.org/2000/svg">
<path d="M73.5127 14.6202C73.5127 9.70414 77.5235 5.69336 82.4718 5.69336C87.3879 5.69336 91.3987 9.70414 91.3987 14.6202V23.7087H86.8706V21.5731C85.8683 22.7694 84.2841 23.5776 82.4718 23.5776C77.5218 23.5793 73.5127 19.5686 73.5127 14.6202ZM86.8706 14.6202C86.8706 12.1936 84.8967 10.2214 82.4718 10.2214C80.013 10.2214 78.0408 12.1936 78.0408 14.6202C78.0408 17.0774 80.013 19.0513 82.4718 19.0513C84.8967 19.0513 86.8706 17.0774 86.8706 14.6202Z" fill="#3F51B5"/>
<path d="M0 14.8473C0 9.54324 4.26943 5.75879 9.02382 5.75879C11.9013 5.75879 14.5542 7.18306 16.0091 9.28459L12.7419 12.4548C11.966 10.9352 10.3171 10.2869 9.05445 10.2869C6.79127 10.2869 4.52638 12.0327 4.52638 14.8473C4.52638 17.4014 6.53092 19.4723 9.05445 19.4723C10.671 19.4723 12.1583 18.5347 12.7743 17.2721L16.0091 20.4423C14.5865 22.5778 11.9013 24.0004 9.02382 24.0004C4.04311 24.0004 0 19.8943 0 14.8473Z" fill="#3F51B5"/>
<path d="M16.6885 14.8792C16.6885 9.9308 20.7316 5.8877 25.68 5.8877C30.6284 5.8877 34.6715 9.9308 34.6715 14.8792C34.6715 19.8599 30.6284 23.8707 25.68 23.8707C20.7316 23.8707 16.6885 19.8599 16.6885 14.8792ZM30.1434 14.8792C30.1434 12.422 28.1388 10.4158 25.68 10.4158C23.2211 10.4158 21.2166 12.422 21.2166 14.8792C21.2166 17.3704 23.2211 19.3426 25.68 19.3426C28.1388 19.3426 30.1434 17.3704 30.1434 14.8792Z" fill="#3F51B5"/>
<path d="M36.2705 14.8473C36.2705 9.54324 40.5399 5.75879 45.2943 5.75879C48.1718 5.75879 50.8247 7.18306 52.2796 9.28459L49.0124 12.4548C48.2365 10.9352 46.5876 10.2869 45.325 10.2869C43.0618 10.2869 40.7969 12.0327 40.7969 14.8473C40.7969 17.4014 42.8014 19.4723 45.325 19.4723C46.9415 19.4723 48.4288 18.5347 49.0448 17.2721L52.2796 20.4423C50.857 22.5778 48.1718 24.0004 45.2943 24.0004C40.3136 24.0004 36.2705 19.8943 36.2705 14.8473Z" fill="#3F51B5"/>
<path d="M71.5713 14.7819V23.7087H67.0432V14.7819C67.0432 12.2277 65.3926 10.6095 63.0001 10.6095C60.5736 10.6095 58.8923 12.2277 58.8923 14.7819V23.7087H54.3643V1.06836H58.8923V7.69797C59.8623 6.63104 61.2542 6.08141 63.0001 6.08141C67.8855 6.08311 71.5713 9.67188 71.5713 14.7819Z" fill="#3F51B5"/>
<path d="M102.354 6.4066H106.655V8.41114C107.464 6.85924 109.953 6.3079 112.024 6.4066V10.9347C109.405 10.482 106.882 12.1309 106.882 14.8485V23.7106H102.354V6.4066Z" fill="#3F51B5"/>
<path d="M97.1354 4.82076C98.4627 4.82076 99.5296 3.65683 99.5296 2.39421C99.5296 1.10096 98.4627 0 97.1354 0C95.8422 0 94.7412 1.09926 94.7412 2.39421C94.7429 3.65683 95.8422 4.82076 97.1354 4.82076Z" fill="#3F51B5"/>
<path d="M99.0425 6.39453V6.40474H95.3874V6.39453H91.1895V6.45919C92.6852 6.76549 94.0006 7.56356 94.9671 8.67303C95.3227 9.07972 95.6324 9.52726 95.8843 10.0122L95.886 10.0071L98.6903 15.7161C98.7107 15.7536 98.7294 15.7893 98.7465 15.8285L98.7516 15.8387L98.7499 15.8404C98.7992 15.968 98.8281 16.1058 98.8281 16.2505C98.8281 16.8852 98.3142 17.3991 97.6795 17.3991H97.1622V20.2612C97.1622 21.3605 96.2723 22.2505 95.173 22.2505H94.9654V23.7105H99.0391H99.2672H99.6841V6.39453H99.0425Z" fill="#3F51B5"/>
<rect x="116" y="6" width="32" height="15" rx="4" fill="#3F51B5"/>
<path d="M125.359 13.6748H123.558L123.548 12.918H125.184C125.454 12.918 125.69 12.8724 125.892 12.7812C126.093 12.6901 126.25 12.5599 126.36 12.3906C126.474 12.2181 126.531 12.013 126.531 11.7754C126.531 11.515 126.481 11.3034 126.38 11.1406C126.282 10.9746 126.131 10.8542 125.926 10.7793C125.724 10.7012 125.467 10.6621 125.154 10.6621H123.768V17H122.825V9.89062H125.154C125.519 9.89062 125.844 9.92806 126.131 10.0029C126.417 10.0745 126.66 10.1885 126.858 10.3447C127.06 10.4977 127.213 10.693 127.317 10.9307C127.422 11.1683 127.474 11.4531 127.474 11.7852C127.474 12.0781 127.399 12.3434 127.249 12.5811C127.099 12.8154 126.891 13.0075 126.624 13.1572C126.36 13.307 126.051 13.403 125.696 13.4453L125.359 13.6748ZM125.315 17H123.187L123.719 16.2334H125.315C125.615 16.2334 125.869 16.1813 126.077 16.0771C126.289 15.973 126.45 15.8265 126.561 15.6377C126.671 15.4456 126.727 15.2194 126.727 14.959C126.727 14.6953 126.679 14.4674 126.585 14.2754C126.491 14.0833 126.342 13.9352 126.141 13.8311C125.939 13.7269 125.678 13.6748 125.359 13.6748H124.017L124.026 12.918H125.862L126.062 13.1914C126.404 13.2207 126.694 13.3184 126.932 13.4844C127.169 13.6471 127.35 13.8555 127.474 14.1094C127.601 14.3633 127.664 14.6432 127.664 14.9492C127.664 15.3919 127.566 15.7663 127.371 16.0723C127.179 16.375 126.907 16.6061 126.556 16.7656C126.204 16.9219 125.791 17 125.315 17ZM130.911 17.0977C130.543 17.0977 130.21 17.0358 129.91 16.9121C129.614 16.7852 129.359 16.6077 129.144 16.3799C128.932 16.152 128.769 15.8818 128.655 15.5693C128.542 15.2568 128.485 14.915 128.485 14.5439V14.3389C128.485 13.9092 128.548 13.5267 128.675 13.1914C128.802 12.8529 128.974 12.5664 129.193 12.332C129.411 12.0977 129.658 11.9202 129.935 11.7998C130.211 11.6794 130.498 11.6191 130.794 11.6191C131.172 11.6191 131.497 11.6842 131.771 11.8145C132.047 11.9447 132.274 12.127 132.449 12.3613C132.625 12.5924 132.755 12.8659 132.84 13.1816C132.925 13.4941 132.967 13.8359 132.967 14.207V14.6123H129.022V13.875H132.064V13.8066C132.051 13.5723 132.002 13.3444 131.917 13.123C131.836 12.9017 131.706 12.7194 131.527 12.5762C131.348 12.4329 131.103 12.3613 130.794 12.3613C130.589 12.3613 130.4 12.4053 130.228 12.4932C130.055 12.5778 129.907 12.7048 129.783 12.874C129.66 13.0433 129.564 13.25 129.495 13.4941C129.427 13.7383 129.393 14.0199 129.393 14.3389V14.5439C129.393 14.7946 129.427 15.0306 129.495 15.252C129.567 15.4701 129.669 15.6621 129.803 15.8281C129.94 15.9941 130.104 16.1243 130.296 16.2188C130.491 16.3132 130.713 16.3604 130.96 16.3604C131.279 16.3604 131.549 16.2952 131.771 16.165C131.992 16.0348 132.186 15.8607 132.352 15.6426L132.899 16.0771C132.785 16.2497 132.64 16.4141 132.464 16.5703C132.288 16.7266 132.072 16.8535 131.815 16.9512C131.561 17.0488 131.26 17.0977 130.911 17.0977ZM136.034 11.7168V12.4102H133.177V11.7168H136.034ZM134.144 10.4326H135.047V15.6914C135.047 15.8704 135.075 16.0055 135.13 16.0967C135.186 16.1878 135.257 16.248 135.345 16.2773C135.433 16.3066 135.527 16.3213 135.628 16.3213C135.703 16.3213 135.781 16.3148 135.863 16.3018C135.947 16.2855 136.011 16.2725 136.053 16.2627L136.058 17C135.986 17.0228 135.892 17.0439 135.775 17.0635C135.661 17.0863 135.523 17.0977 135.36 17.0977C135.138 17.0977 134.935 17.0537 134.749 16.9658C134.564 16.8779 134.416 16.7314 134.305 16.5264C134.198 16.318 134.144 16.0381 134.144 15.6865V10.4326ZM140.008 16.0967V13.377C140.008 13.1686 139.966 12.988 139.881 12.835C139.8 12.6787 139.676 12.5583 139.51 12.4736C139.344 12.389 139.139 12.3467 138.895 12.3467C138.667 12.3467 138.467 12.3857 138.295 12.4639C138.125 12.542 137.992 12.6445 137.894 12.7715C137.8 12.8984 137.753 13.0352 137.753 13.1816H136.849C136.849 12.9928 136.898 12.8057 136.996 12.6201C137.093 12.4346 137.233 12.2669 137.416 12.1172C137.601 11.9642 137.823 11.8438 138.08 11.7559C138.34 11.6647 138.63 11.6191 138.949 11.6191C139.333 11.6191 139.671 11.6842 139.964 11.8145C140.261 11.9447 140.492 12.1416 140.658 12.4053C140.827 12.6657 140.912 12.9928 140.912 13.3867V15.8477C140.912 16.0234 140.926 16.2106 140.956 16.4092C140.988 16.6077 141.035 16.7786 141.097 16.9219V17H140.155C140.109 16.8958 140.074 16.7575 140.047 16.585C140.021 16.4092 140.008 16.2464 140.008 16.0967ZM140.165 13.7969L140.174 14.4316H139.261C139.004 14.4316 138.775 14.4528 138.573 14.4951C138.371 14.5342 138.202 14.5944 138.065 14.6758C137.928 14.7572 137.824 14.8597 137.753 14.9834C137.681 15.1038 137.645 15.2454 137.645 15.4082C137.645 15.5742 137.683 15.7256 137.757 15.8623C137.832 15.999 137.945 16.1081 138.094 16.1895C138.247 16.2676 138.435 16.3066 138.656 16.3066C138.933 16.3066 139.177 16.248 139.388 16.1309C139.6 16.0137 139.768 15.8704 139.891 15.7012C140.018 15.5319 140.087 15.3675 140.096 15.208L140.482 15.6426C140.459 15.7793 140.397 15.9307 140.296 16.0967C140.196 16.2627 140.06 16.4222 139.891 16.5752C139.725 16.7249 139.527 16.8503 139.296 16.9512C139.068 17.0488 138.81 17.0977 138.524 17.0977C138.166 17.0977 137.852 17.0277 137.582 16.8877C137.315 16.7477 137.106 16.5605 136.957 16.3262C136.81 16.0885 136.737 15.8232 136.737 15.5303C136.737 15.2471 136.792 14.998 136.903 14.7832C137.014 14.5651 137.173 14.3844 137.381 14.2412C137.59 14.0947 137.84 13.984 138.133 13.9092C138.426 13.8343 138.754 13.7969 139.115 13.7969H140.165Z" fill="white"/>
<rect x="117" y="6" width="32" height="15" rx="4" fill="#3F51B5"/>
<path d="M126.359 13.6748H124.558L124.548 12.918H126.184C126.454 12.918 126.69 12.8724 126.892 12.7812C127.093 12.6901 127.25 12.5599 127.36 12.3906C127.474 12.2181 127.531 12.013 127.531 11.7754C127.531 11.515 127.481 11.3034 127.38 11.1406C127.282 10.9746 127.131 10.8542 126.926 10.7793C126.724 10.7012 126.467 10.6621 126.154 10.6621H124.768V17H123.825V9.89062H126.154C126.519 9.89062 126.844 9.92806 127.131 10.0029C127.417 10.0745 127.66 10.1885 127.858 10.3447C128.06 10.4977 128.213 10.693 128.317 10.9307C128.422 11.1683 128.474 11.4531 128.474 11.7852C128.474 12.0781 128.399 12.3434 128.249 12.5811C128.099 12.8154 127.891 13.0075 127.624 13.1572C127.36 13.307 127.051 13.403 126.696 13.4453L126.359 13.6748ZM126.315 17H124.187L124.719 16.2334H126.315C126.615 16.2334 126.869 16.1813 127.077 16.0771C127.289 15.973 127.45 15.8265 127.561 15.6377C127.671 15.4456 127.727 15.2194 127.727 14.959C127.727 14.6953 127.679 14.4674 127.585 14.2754C127.491 14.0833 127.342 13.9352 127.141 13.8311C126.939 13.7269 126.678 13.6748 126.359 13.6748H125.017L125.026 12.918H126.862L127.062 13.1914C127.404 13.2207 127.694 13.3184 127.932 13.4844C128.169 13.6471 128.35 13.8555 128.474 14.1094C128.601 14.3633 128.664 14.6432 128.664 14.9492C128.664 15.3919 128.566 15.7663 128.371 16.0723C128.179 16.375 127.907 16.6061 127.556 16.7656C127.204 16.9219 126.791 17 126.315 17ZM131.911 17.0977C131.543 17.0977 131.21 17.0358 130.91 16.9121C130.614 16.7852 130.359 16.6077 130.144 16.3799C129.932 16.152 129.769 15.8818 129.655 15.5693C129.542 15.2568 129.485 14.915 129.485 14.5439V14.3389C129.485 13.9092 129.548 13.5267 129.675 13.1914C129.802 12.8529 129.974 12.5664 130.193 12.332C130.411 12.0977 130.658 11.9202 130.935 11.7998C131.211 11.6794 131.498 11.6191 131.794 11.6191C132.172 11.6191 132.497 11.6842 132.771 11.8145C133.047 11.9447 133.274 12.127 133.449 12.3613C133.625 12.5924 133.755 12.8659 133.84 13.1816C133.925 13.4941 133.967 13.8359 133.967 14.207V14.6123H130.022V13.875H133.064V13.8066C133.051 13.5723 133.002 13.3444 132.917 13.123C132.836 12.9017 132.706 12.7194 132.527 12.5762C132.348 12.4329 132.103 12.3613 131.794 12.3613C131.589 12.3613 131.4 12.4053 131.228 12.4932C131.055 12.5778 130.907 12.7048 130.783 12.874C130.66 13.0433 130.564 13.25 130.495 13.4941C130.427 13.7383 130.393 14.0199 130.393 14.3389V14.5439C130.393 14.7946 130.427 15.0306 130.495 15.252C130.567 15.4701 130.669 15.6621 130.803 15.8281C130.94 15.9941 131.104 16.1243 131.296 16.2188C131.491 16.3132 131.713 16.3604 131.96 16.3604C132.279 16.3604 132.549 16.2952 132.771 16.165C132.992 16.0348 133.186 15.8607 133.352 15.6426L133.899 16.0771C133.785 16.2497 133.64 16.4141 133.464 16.5703C133.288 16.7266 133.072 16.8535 132.815 16.9512C132.561 17.0488 132.26 17.0977 131.911 17.0977ZM137.034 11.7168V12.4102H134.177V11.7168H137.034ZM135.144 10.4326H136.047V15.6914C136.047 15.8704 136.075 16.0055 136.13 16.0967C136.186 16.1878 136.257 16.248 136.345 16.2773C136.433 16.3066 136.527 16.3213 136.628 16.3213C136.703 16.3213 136.781 16.3148 136.863 16.3018C136.947 16.2855 137.011 16.2725 137.053 16.2627L137.058 17C136.986 17.0228 136.892 17.0439 136.775 17.0635C136.661 17.0863 136.523 17.0977 136.36 17.0977C136.138 17.0977 135.935 17.0537 135.749 16.9658C135.564 16.8779 135.416 16.7314 135.305 16.5264C135.198 16.318 135.144 16.0381 135.144 15.6865V10.4326ZM141.008 16.0967V13.377C141.008 13.1686 140.966 12.988 140.881 12.835C140.8 12.6787 140.676 12.5583 140.51 12.4736C140.344 12.389 140.139 12.3467 139.895 12.3467C139.667 12.3467 139.467 12.3857 139.295 12.4639C139.125 12.542 138.992 12.6445 138.894 12.7715C138.8 12.8984 138.753 13.0352 138.753 13.1816H137.849C137.849 12.9928 137.898 12.8057 137.996 12.6201C138.093 12.4346 138.233 12.2669 138.416 12.1172C138.601 11.9642 138.823 11.8438 139.08 11.7559C139.34 11.6647 139.63 11.6191 139.949 11.6191C140.333 11.6191 140.671 11.6842 140.964 11.8145C141.261 11.9447 141.492 12.1416 141.658 12.4053C141.827 12.6657 141.912 12.9928 141.912 13.3867V15.8477C141.912 16.0234 141.926 16.2106 141.956 16.4092C141.988 16.6077 142.035 16.7786 142.097 16.9219V17H141.155C141.109 16.8958 141.074 16.7575 141.047 16.585C141.021 16.4092 141.008 16.2464 141.008 16.0967ZM141.165 13.7969L141.174 14.4316H140.261C140.004 14.4316 139.775 14.4528 139.573 14.4951C139.371 14.5342 139.202 14.5944 139.065 14.6758C138.928 14.7572 138.824 14.8597 138.753 14.9834C138.681 15.1038 138.645 15.2454 138.645 15.4082C138.645 15.5742 138.683 15.7256 138.757 15.8623C138.832 15.999 138.945 16.1081 139.094 16.1895C139.247 16.2676 139.435 16.3066 139.656 16.3066C139.933 16.3066 140.177 16.248 140.388 16.1309C140.6 16.0137 140.768 15.8704 140.891 15.7012C141.018 15.5319 141.087 15.3675 141.096 15.208L141.482 15.6426C141.459 15.7793 141.397 15.9307 141.296 16.0967C141.196 16.2627 141.06 16.4222 140.891 16.5752C140.725 16.7249 140.527 16.8503 140.296 16.9512C140.068 17.0488 139.81 17.0977 139.524 17.0977C139.166 17.0977 138.852 17.0277 138.582 16.8877C138.315 16.7477 138.106 16.5605 137.957 16.3262C137.81 16.0885 137.737 15.8232 137.737 15.5303C137.737 15.2471 137.792 14.998 137.903 14.7832C138.014 14.5651 138.173 14.3844 138.381 14.2412C138.59 14.0947 138.84 13.984 139.133 13.9092C139.426 13.8343 139.754 13.7969 140.115 13.7969H141.165Z" fill="white"/>
</svg>
