<svg width="52" height="52" viewBox="0 0 52 52" fill="none" xmlns="http://www.w3.org/2000/svg">
<rect width="52" height="52" rx="26" fill="#09AF00"/>
<path d="M34.6188 15.2914C34.659 15.2513 34.6801 15.1961 34.6771 15.1394C34.6741 15.0828 34.6472 15.0301 34.6031 14.9944C33.3722 14.0002 31.988 13.2196 30.4517 12.6524C28.9111 12.0835 27.2541 11.8 25.4824 11.8C23.4742 11.8 21.604 12.1663 19.8742 12.9009C18.1482 13.6339 16.6448 14.6397 15.366 15.9186C14.0869 17.1977 13.0867 18.7014 12.3654 20.4279C11.6429 22.1571 11.2824 24.0152 11.2824 26C11.2824 28.0078 11.6428 29.8776 12.3654 31.6071C13.0867 33.3336 14.0869 34.8373 15.366 36.1164C16.6451 37.3955 18.1488 38.3957 19.8753 39.117C21.6048 39.8397 23.4746 40.2 25.4824 40.2C27.4672 40.2 29.3253 39.8395 31.0545 39.117C32.781 38.3957 34.2848 37.3955 35.5638 36.1164C36.8427 34.8376 37.8485 33.3342 38.5815 31.6082C39.3161 29.8784 39.6824 28.0082 39.6824 26C39.6824 24.9842 39.5879 24.0027 39.3985 23.0558C39.2091 22.1088 38.925 21.197 38.546 20.3206C38.5197 20.2598 38.465 20.216 38.3999 20.2035C38.3349 20.1911 38.2678 20.2117 38.221 20.2586L36.611 21.8686C36.5574 21.9221 36.5387 22.0014 36.5627 22.0732C36.7692 22.6927 36.9241 23.3294 37.0274 23.9837C37.1307 24.638 37.1824 25.31 37.1824 26C37.1824 29.3333 36.0639 32.1107 33.8285 34.3461C31.5931 36.5815 28.8158 37.7 25.4824 37.7C22.1491 37.7 19.3717 36.5815 17.1363 34.3461C14.9009 32.1107 13.7824 29.3333 13.7824 26C13.7824 22.6667 14.9009 19.8893 17.1363 17.6539C19.3717 15.4185 22.1491 14.3 25.4824 14.3C26.9084 14.3 28.2391 14.5184 29.476 14.9537C30.7154 15.3897 31.839 16.009 32.8479 16.8115C32.9275 16.8748 33.0419 16.8683 33.1138 16.7964L34.6188 15.2914ZM23.2756 32.511C23.313 32.5487 23.364 32.5699 23.4171 32.57C23.4703 32.5701 23.5213 32.549 23.5588 32.5114L39.6588 16.4114C39.6966 16.3736 39.7177 16.3223 39.7174 16.2689C39.7171 16.2155 39.6955 16.1644 39.6573 16.127L38.0473 14.552C37.9689 14.4754 37.8435 14.4761 37.766 14.5536L23.4174 28.9022L19.3588 24.8436C19.2807 24.7655 19.1541 24.7655 19.076 24.8436L17.501 26.4186C17.4231 26.4965 17.4229 26.6228 17.5006 26.701L23.2756 32.511Z" fill="white" stroke="white" stroke-width="0.4" stroke-linejoin="round"/>
</svg>
